<svg width="34" height="60" viewBox="0 0 34 60" fill="none" xmlns="http://www.w3.org/2000/svg">
<path d="M1.78223 33.8614V51.6832L15.4455 60L16.0396 34.4554L12 28L1.78223 33.8614Z" fill="url(#paint0_linear_265_14193)"/>
<path d="M19.0099 44.5545V22.5743L0 9.50495L14.2574 0L33.8614 11.2871V36.2376L19.0099 44.5545Z" fill="url(#paint1_linear_265_14193)"/>
<path d="M12.0625 24.5003C12.0629 24.6594 12.0221 24.816 11.944 24.9547C11.866 25.0934 11.7534 25.2096 11.6172 25.2919L3.175 30.4563C3.03267 30.5435 2.86965 30.5911 2.70278 30.5942C2.53591 30.5973 2.37124 30.5557 2.22578 30.4739C2.08171 30.3934 1.96169 30.2759 1.87806 30.1336C1.79444 29.9912 1.75024 29.8292 1.75 29.6642V19.3364C1.75024 19.1714 1.79444 19.0093 1.87806 18.867C1.96169 18.7247 2.08171 18.6072 2.22578 18.5267C2.37124 18.4448 2.53591 18.4033 2.70278 18.4064C2.86965 18.4095 3.03267 18.4571 3.175 18.5442L11.6172 23.7087C11.7534 23.791 11.866 23.9072 11.944 24.0459C12.0221 24.1846 12.0629 24.3411 12.0625 24.5003Z" fill="#FFF73E"/>
<defs>
<linearGradient id="paint0_linear_265_14193" x1="16.9307" y1="1.3411e-06" x2="16.9307" y2="60" gradientUnits="userSpaceOnUse">
<stop stop-color="#162F6F"/>
<stop offset="1" stop-color="#00D1FF"/>
</linearGradient>
<linearGradient id="paint1_linear_265_14193" x1="16.9307" y1="0" x2="16.9307" y2="60" gradientUnits="userSpaceOnUse">
<stop stop-color="#162F6F"/>
<stop offset="1" stop-color="#00D1FF"/>
</linearGradient>
</defs>
</svg>
